<svg width="49" height="49" viewBox="0 0 49 49" fill="none" xmlns="http://www.w3.org/2000/svg">
<path d="M46.7796 21.0255C44.5326 18.7785 40.9917 18.6986 38.6501 20.6837C36.3098 18.6997 32.7682 18.7775 30.5205 21.0255C28.4592 23.0866 28.2257 26.3112 29.9527 28.8669C30.9709 30.3736 33.3461 32.3879 37.2017 35.0135V37.6154C37.2017 39.9505 35.302 41.8502 32.9669 41.8502C30.6317 41.8502 28.732 39.9505 28.732 37.6154V36.9095C28.732 34.1853 26.5156 31.9689 23.7914 31.9689C21.0672 31.9689 18.8508 34.1853 18.8508 36.9095V43.2618C18.8508 44.8185 17.5843 46.085 16.0276 46.085C14.4709 46.085 13.2044 44.8185 13.2044 43.2618V34.5493C14.8474 33.9666 16.0276 32.3976 16.0276 30.5573V28.321C20.1622 26.6423 23.0856 22.5828 23.0856 17.8529V3.73679H17.4392V0.913574H14.616V9.38321H17.4392V6.56H20.2624V12.2064C20.2624 16.8766 16.4629 20.6761 11.7928 20.6761C7.1226 20.6761 3.32312 16.8766 3.32312 12.2064V6.56H6.14633V9.38321H8.96955V0.913574H6.14643V3.73679H0.5V17.8529C0.5 22.5829 3.42344 26.6423 7.55803 28.321V30.5573C7.55803 32.4396 8.77399 33.9845 10.3812 34.5517V43.2618C10.3812 46.3752 12.9142 48.9082 16.0277 48.9082C19.1411 48.9082 21.6741 46.3752 21.6741 43.2618V36.9095C21.6741 35.7421 22.624 34.7921 23.7915 34.7921C24.959 34.7921 25.9089 35.7421 25.9089 36.9095V37.6154C25.9089 41.5072 29.0752 44.6734 32.967 44.6734C36.8588 44.6734 40.025 41.5072 40.025 37.6154V35.0574C42.9734 33.0304 46.0822 30.7388 47.3475 28.8668C49.0744 26.3111 48.8409 23.0867 46.7796 21.0255ZM3.58794 19.9577C8.04711 24.6754 15.5298 24.6846 19.9977 19.9577C19.0594 23.6131 15.7367 26.3227 11.7929 26.3227C7.84901 26.3227 4.52619 23.6131 3.58794 19.9577ZM13.2045 29.0578V30.5575C13.2045 31.3359 12.5712 31.9691 11.7929 31.9691C11.0135 31.9691 10.3812 31.337 10.3812 30.5575V29.0578C11.2984 29.1726 12.2462 29.1777 13.2045 29.0578ZM45.0082 27.2862C43.9382 28.8696 40.4534 31.3355 38.6449 32.5807C34.4064 29.6828 32.8468 28.1072 32.292 27.2862C31.333 25.8669 31.4254 24.1133 32.517 23.0219C33.763 21.7757 35.7784 21.7754 37.0249 23.0219L38.6502 24.6471L40.2755 23.0219C41.5216 21.7758 43.537 21.7754 44.7834 23.0219C45.8749 24.1132 45.9674 25.8669 45.0082 27.2862Z" fill="#F88C8C"/>
</svg>
