<svg width="42" height="42" viewBox="0 0 42 42" fill="none" xmlns="http://www.w3.org/2000/svg">
<rect width="42" height="42" rx="21" fill="white"/>
<path d="M18.9014 32C21.361 31.995 23.6781 30.8675 25.1736 28.9472V26.6356H21.8194V23.4051H25.1744L25.1734 20.1079H25.5147C23.564 16.1175 19.9845 11.3919 18.9012 10C17.3907 11.9451 10.9995 20.394 10.9995 24.2247C11.0015 26.286 11.8345 28.2629 13.3167 29.7201C14.7979 31.1775 16.8064 31.998 18.9014 32ZM18.9014 30.1503V30.945C17.091 30.943 15.3563 30.2347 14.0761 28.9751C12.7958 27.7154 12.0759 26.0078 12.0739 24.2266H12.8816C12.8837 25.7971 13.5177 27.3022 14.6455 28.4128C15.7744 29.5234 17.304 30.1483 18.8993 30.1503L18.9014 30.1503Z" fill="#F88C8C"/>
<path d="M27.6507 20.9023H25.9827V24.1985H22.6284V25.8396H25.9827V29.1357H27.6507V25.8396H31.0008V24.1985H27.6507V20.9023Z" fill="#F88C8C"/>
</svg>
