<svg width="42" height="42" viewBox="0 0 42 42" fill="none" xmlns="http://www.w3.org/2000/svg">
<rect width="42" height="42" rx="21" fill="white"/>
<path d="M20.9555 8.44531C14.0315 8.44531 8.39844 14.0781 8.39844 21.0021C8.39874 27.9261 14.0315 33.5586 20.9555 33.5586C27.8792 33.5586 33.512 27.9261 33.512 21.0024C33.512 14.0781 27.8792 8.44531 20.9555 8.44531ZM18.0071 19.83L19.0034 20.6961L28.4366 28.8963C26.4851 30.7467 23.8511 31.8864 20.9555 31.8864C14.954 31.8864 10.0715 27.0039 10.0715 21.0024C10.0715 18.651 10.8233 16.473 12.0962 14.6919L18.0071 19.83ZM23.9597 22.1745L22.6883 21.0693L21.2627 19.83L22.6889 21.0693L13.5008 13.0827C15.4502 11.2467 18.0728 10.1181 20.9555 10.1181C26.9567 10.1181 31.8392 15.0006 31.8392 21.0021C31.8392 23.3403 31.0955 25.5066 29.8358 27.2826L23.9597 22.1745Z" fill="#64D3C2"/>
<path d="M22.7316 20.7318L22.1172 20.2148L22.7316 20.7318Z" fill="#64D3C2"/>
<path d="M30.2401 18.7997C30.2479 17.5018 29.1637 16.44 27.8224 16.4325L21.8098 16.3985C20.9566 16.3938 20.2036 16.8178 19.7656 17.4605L20.4772 18.0594C20.7343 17.6028 21.2302 17.2901 21.8044 17.2933L24.8104 17.3101L24.793 20.2285L23.0434 20.219L23.1307 20.2924L23.1304 20.2927L24.1129 21.1193L27.7942 21.1399C29.1352 21.148 30.232 20.0973 30.2401 18.7997Z" fill="#64D3C2"/>
<path d="M11.9759 22.6036C11.4209 23.785 11.9621 25.1834 13.1825 25.7204C14.4032 26.2571 15.8477 25.734 16.4024 24.5517L18.299 20.5146L17.6522 19.9701L17.5715 19.9021L16.8059 21.5319L14.0615 20.3238L15.1979 17.9046L14.4707 17.293C14.4689 17.297 14.4665 17.3005 14.4644 17.3046L11.9759 22.6036Z" fill="#64D3C2"/>
<path d="M25.3742 21.422L24.4766 21.431L25.481 22.2758C26.1344 22.3136 26.6711 22.7727 26.7944 23.3812L27.6482 24.1C27.6812 23.9463 27.6989 23.7875 27.6971 23.624C27.6833 22.3969 26.6423 21.4095 25.3742 21.422Z" fill="#64D3C2"/>
<path d="M17.422 23.7273C17.4352 24.9543 18.4765 25.9432 19.7446 25.9298L24.6856 25.8801L23.6923 25.0446L22.5775 25.0554L22.5673 24.0978L19.4713 21.4922C18.3106 21.6145 17.4094 22.574 17.422 23.7273Z" fill="#64D3C2"/>
</svg>
