<svg width="49" height="49" viewBox="0 0 49 49" fill="none" xmlns="http://www.w3.org/2000/svg">
<g clip-path="url(#clip0_9756_5707)">
<path d="M32.9375 0.913086H16.0625C12.1855 0.913086 9.03125 4.0673 9.03125 7.94434V33.2568C9.03125 37.1339 12.1855 40.2881 16.0625 40.2881H20.2812V48.9131H28.7188V40.2881H32.9375C36.8145 40.2881 39.9688 37.1339 39.9688 33.2568V7.94434C39.9688 4.0673 36.8145 0.913086 32.9375 0.913086ZM25.9062 46.1006H23.0938V43.1006H25.9062V46.1006ZM23.0938 40.2881V34.6631H25.9062V40.2881H23.0938ZM37.1562 33.2568C37.1562 35.5831 35.2637 37.4756 32.9375 37.4756H28.7188V34.6631H31.5312V31.8506H17.4688V34.6631H20.2812V37.4756H16.0625C13.7363 37.4756 11.8438 35.5831 11.8438 33.2568V7.94434C11.8438 5.61812 13.7363 3.72559 16.0625 3.72559H32.9375C35.2637 3.72559 37.1562 5.61812 37.1562 7.94434V33.2568Z" fill="#F88C8C"/>
<path d="M24.5 11.0947C23.4826 12.5689 22.7762 13.5439 21.8773 15.0934C20.4467 17.5596 20.2812 18.6149 20.2812 19.1941C20.2812 21.5203 22.1738 23.4128 24.5 23.4128C26.8262 23.4128 28.7188 21.5203 28.7188 19.1941C28.7188 18.6149 28.5533 17.5596 27.1227 15.0934C26.2238 13.5439 25.5173 12.5687 24.5 11.0947ZM24.5 20.6003C23.7246 20.6003 23.0938 19.9695 23.0938 19.1958C23.1052 18.7659 23.6901 17.5405 24.5 16.176C25.3095 17.54 25.8942 18.7649 25.9062 19.1953C25.9057 19.97 25.275 20.6003 24.5 20.6003Z" fill="#F88C8C"/>
<path d="M14.6562 27.0381C14.6562 28.1427 15.5517 29.0381 16.6562 29.0381H32.3438C33.4483 29.0381 34.3438 28.1427 34.3438 27.0381V8.53809C34.3438 7.43352 33.4483 6.53809 32.3438 6.53809H16.6562C15.5517 6.53809 14.6562 7.43352 14.6562 8.53809V27.0381ZM17.4688 9.35059H31.5312V26.2256H17.4688V9.35059Z" fill="#F88C8C"/>
</g>
<defs>
<clipPath id="clip0_9756_5707">
<rect width="48" height="48" fill="white" transform="translate(0.5 0.913086)"/>
</clipPath>
</defs>
</svg>
